<?xml version="1.0" encoding="UTF-8"?>
<svg xmlns="http://www.w3.org/2000/svg" id="Layer_1" data-name="Layer 1" viewBox="0 0 24 24" width="512" height="512"><path d="M21.64,19.096l-3.548-7.096H5.908l-3.548,7.096c-.529,1.058-.474,2.291,.148,3.297s1.699,1.607,2.883,1.607h13.217c1.184,0,2.261-.601,2.883-1.607s.678-2.239,.148-3.297Zm-2.7,1.72c-.052,.084-.151,.185-.331,.185H5.392c-.18,0-.279-.1-.331-.185-.052-.084-.097-.218-.017-.378l2.718-5.438h8.477l2.718,5.438c.08,.16,.035,.294-.017,.378ZM5,9.484l-3,5.905V3.5C2,1.57,3.57,0,5.5,0h13c1.93,0,3.5,1.57,3.5,3.5V15.389l-3-5.905V3.5c0-.276-.225-.5-.5-.5H5.5c-.275,0-.5,.224-.5,.5v5.984Z"/></svg>
